HIERARCHY
ROOT Hips
{
  OFFSET -67.495 39.8819 1.68766
  CHANNELS 6 Xposition Yposition Zposition Zrotation Xrotation Yrotation
  JOINT LeftHip
  {
    OFFSET 3.43 -1.06581e-013 4.61853e-014
    CHANNELS 6 Xposition Yposition Zposition Zrotation Xrotation Yrotation
    JOINT LeftKnee
    {
      OFFSET 2.13163e-014 -18.47 -4.9738e-014
      CHANNELS 6 Xposition Yposition Zposition Zrotation Xrotation Yrotation
      JOINT LeftAnkle
      {
        OFFSET 2.13163e-014 -17.95 7.10543e-015
        CHANNELS 6 Xposition Yposition Zposition Zrotation Xrotation Yrotation
        End Site
        {
          OFFSET 0 -3.12 0
        }
      }
    }
  }
  JOINT RightHip
  {
    OFFSET -3.43 -2.70006e-013 2.4869e-014
    CHANNELS 6 Xposition Yposition Zposition Zrotation Xrotation Yrotation
    JOINT RightKnee
    {
      OFFSET 1.42109e-014 -18.47 -2.93099e-014
      CHANNELS 6 Xposition Yposition Zposition Zrotation Xrotation Yrotation
      JOINT RightAnkle
      {
        OFFSET -6.21725e-015 -17.95 7.10543e-015
        CHANNELS 6 Xposition Yposition Zposition Zrotation Xrotation Yrotation
        End Site
        {
          OFFSET 0 -3.12 0
        }
      }
    }
  }
  JOINT Chest
  {
    OFFSET -2.84217e-014 4.57 -3.55271e-014
    CHANNELS 6 Xposition Yposition Zposition Zrotation Xrotation Yrotation
    JOINT Chest2
    {
      OFFSET 2.84217e-014 6.57 1.46549e-014
      CHANNELS 6 Xposition Yposition Zposition Zrotation Xrotation Yrotation
      JOINT LeftCollar
      {
        OFFSET 1.06 4.19 1.76
        CHANNELS 6 Xposition Yposition Zposition Zrotation Xrotation Yrotation
        JOINT LeftShoulder
        {
          OFFSET 5.81 7.10543e-015 2.13163e-014
          CHANNELS 6 Xposition Yposition Zposition Zrotation Xrotation Yrotation
          JOINT LeftElbow
          {
            OFFSET -9.23706e-014 -12.08 2.84217e-014
            CHANNELS 6 Xposition Yposition Zposition Zrotation Xrotation Yrotation
            JOINT LeftWrist
            {
              OFFSET -2.13163e-014 -9.82 -3.55271e-014
              CHANNELS 6 Xposition Yposition Zposition Zrotation Xrotation Yrotation
              End Site
              {
                OFFSET 0 -7.37 0
              }
            }
          }
        }
      }
      JOINT RightCollar
      {
        OFFSET -1.06 4.19 1.76
        CHANNELS 6 Xposition Yposition Zposition Zrotation Xrotation Yrotation
        JOINT RightShoulder
        {
          OFFSET -6.06 -2.84217e-014 -1.77636e-014
          CHANNELS 6 Xposition Yposition Zposition Zrotation Xrotation Yrotation
          JOINT RightElbow
          {
            OFFSET 7.81597e-014 -11.08 -7.10543e-014
            CHANNELS 6 Xposition Yposition Zposition Zrotation Xrotation Yrotation
            JOINT RightWrist
            {
              OFFSET 1.42109e-014 -9.82 -2.4869e-014
              CHANNELS 6 Xposition Yposition Zposition Zrotation Xrotation Yrotation
              End Site
              {
                OFFSET 0 -7.14001 0
              }
            }
          }
        }
      }
      JOINT Neck
      {
        OFFSET 0 4.05 4.9738e-014
        CHANNELS 6 Xposition Yposition Zposition Zrotation Xrotation Yrotation
        JOINT Head
        {
          OFFSET 3.55271e-015 5.19 -1.77636e-015
          CHANNELS 6 Xposition Yposition Zposition Zrotation Xrotation Yrotation
          End Site
          {
            OFFSET 0 4.14001 0
          }
        }
      }
    }
  }
}
MOTION
Frames:	6
Frame Time:	0.0333333
17.438 35.5041 -8.2591 -0.813123 -13.5585 -2.07242 3.43 -1.04583e-013 8.20436e-015 19.0295 -5.60236 13.3308 2.13163e-014 -18.47 -4.9738e-014 6.67546 48.7108 -13.1663 -1.81433e-014 -17.95 -1.04948e-014 -15.1802 -27.1772 -3.68963 -3.43 -4.6585e-014 1.72304e-014 -18.5284 -9.69678 -13.8898 -2.21511e-014 -18.47 -2.93099e-014 -4.34792 50.4319 -2.40701 -6.21725e-015 -17.95 7.0013e-015 18.2449 -20.8044 3.37689 -3.95239e-014 4.57 2.41838e-014 -0.521167 4.1856 -0.822386 1.02714e-014 6.57 1.46549e-014 -0.398941 3.79228 -0.788635 1.06 4.19 1.76 6.94134 0.0467044 -6.6637 5.81 -1.4828e-013 1.33926e-014 92.066 -51.3694 27.1719 -2.81135e-014 -12.08 1.4126e-014 -12.0983 -26.7518 -31.224 -2.13163e-014 -9.82 -3.55271e-014 9.9267 -3.66992 0.318823 -1.06 4.19 1.76 -2.39484 0.443298 5.94184 -6.06 -6.36593e-015 2.33949e-014 -94.3521 -62.2788 -32.499 -2.50986e-014 -11.08 -2.12018e-016 6.32918 -17.4904 43.336 1.42109e-014 -9.82 -2.4869e-014 -8.05912 -4.79923 -0.33828 1.77441e-014 4.05 -7.99259e-015 0.951584 8.8204 0.873082 3.55271e-015 5.19 -1.77636e-015 -1.04954 11.0915 1.38021 
17.4461 35.5066 -8.25856 -0.797743 -13.5343 -2.07703 3.43 -2.85438e-013 1.06783e-014 18.9961 -5.60941 13.3183 2.13163e-014 -18.47 -4.9738e-014 6.65952 48.6965 -13.1956 -1.98383e-014 -17.95 -1.56794e-014 -15.1435 -27.1966 -3.68333 -3.43 -2.37547e-013 1.73327e-014 -18.5602 -9.71033 -13.9043 -2.18414e-014 -18.47 -2.93099e-014 -4.34561 50.4048 -2.38277 -6.21725e-015 -17.95 6.45898e-015 18.2435 -20.788 3.37392 -8.43769e-014 4.57 2.40128e-014 -0.517911 4.17541 -0.810937 9.10597e-015 6.57 1.46549e-014 -0.397049 3.78292 -0.778228 1.06 4.19 1.76 6.86657 0.0508184 -6.7109 5.81 -1.47561e-013 1.42208e-014 92.1245 -51.3638 27.137 -2.50293e-014 -12.08 1.42058e-014 -12.1108 -26.7705 -31.0922 -2.13163e-014 -9.82 -3.55271e-014 9.86252 -3.62918 0.313235 -1.06 4.19 1.76 -2.43301 0.440774 5.90679 -6.06 -4.04787e-015 2.3935e-014 -94.3394 -62.2863 -32.4783 -1.55792e-014 -11.08 -8.04132e-016 6.32596 -17.4591 43.3504 1.42109e-014 -9.82 -2.4869e-014 -7.99437 -4.76866 -0.333425 1.7836e-014 4.05 -8.21769e-015 0.974781 8.82196 0.822427 3.55271e-015 5.19 -1.77636e-015 -1.18523 11.0893 1.38691 
17.4517 35.5104 -8.25409 -0.823966 -13.4803 -2.1147 3.43 -3.9313e-013 1.43866e-014 19.0296 -5.62774 13.3615 2.13163e-014 -18.47 -4.9738e-014 6.62507 48.684 -13.188 -2.27583e-014 -17.95 -2.34263e-014 -15.1203 -27.2053 -3.67885 -3.43 -3.57298e-013 1.76566e-014 -18.5371 -9.73879 -13.8926 -2.12641e-014 -18.47 -2.93099e-014 -4.33979 50.3567 -2.37621 -6.21725e-015 -17.95 5.47403e-015 18.2465 -20.7704 3.37156 6.13503e-014 4.57 2.39585e-014 -0.479562 4.16556 -0.77603 7.42026e-015 6.57 1.46549e-014 -0.365126 3.77369 -0.744151 1.06 4.19 1.76 6.82744 0.0549751 -6.70286 5.81 -1.48314e-013 1.59504e-014 92.232 -51.4487 27.2071 -1.8971e-014 -12.08 1.46134e-014 -12.1179 -26.7488 -31.1318 -2.13163e-014 -9.82 -3.55271e-014 9.70666 -3.66671 0.311419 -1.06 4.19 1.76 -2.50106 0.436355 5.8412 -6.06 -6.37684e-016 2.43906e-014 -94.383 -62.227 -32.5902 -2.58382e-015 -11.08 -1.61709e-015 6.31786 -17.5662 43.3215 1.42109e-014 -9.82 -2.4869e-014 -7.8383 -4.82861 -0.330956 1.8102e-014 4.05 -8.74399e-015 0.925706 8.72247 0.818974 3.55271e-015 5.19 -1.77636e-015 -1.06937 11.2681 1.32197 
17.46 35.5122 -8.24309 -0.859461 -13.4266 -2.14817 3.43 -4.63222e-013 1.93031e-014 19.0645 -5.65073 13.3989 2.13163e-014 -18.47 -4.9738e-014 6.60986 48.691 -13.1567 -2.68762e-014 -17.95 -3.36765e-014 -15.1186 -27.2239 -3.68103 -3.43 -4.58779e-013 1.81974e-014 -18.4827 -9.76633 -13.8432 -2.04231e-014 -18.47 -2.93099e-014 -4.36634 50.3096 -2.3967 -6.21725e-015 -17.95 4.04974e-015 18.2897 -20.7502 3.37631 1.32836e-013 4.57 2.40185e-014 -0.455573 4.15704 -0.759936 5.2172e-015 6.57 1.46549e-014 -0.344208 3.76609 -0.726478 1.06 4.19 1.76 6.89144 0.0503846 -6.67966 5.81 -1.50469e-013 1.85624e-014 92.2976 -51.4803 27.2364 -1.03181e-014 -12.08 1.53429e-014 -12.1236 -26.7906 -31.1219 -2.13163e-014 -9.82 -3.55271e-014 9.56528 -3.67191 0.307336 -1.06 4.19 1.76 -2.43763 0.443212 5.77605 -6.06 3.83266e-015 2.47632e-014 -94.5417 -62.2115 -32.8324 1.34621e-014 -11.08 -2.64699e-015 6.30274 -17.5986 43.3301 1.42109e-014 -9.82 -2.4869e-014 -7.85669 -4.92282 -0.338284 1.85413e-014 4.05 -9.56955e-015 0.948389 8.58059 0.832253 3.55271e-015 5.19 -1.77636e-015 -1.02115 11.5358 1.3389 
17.4681 35.5096 -8.22872 -0.862452 -13.3977 -2.17264 3.43 -4.86833e-013 2.54017e-014 19.0568 -5.63842 13.4047 2.13163e-014 -18.47 -4.9738e-014 6.59902 48.71 -13.1626 -3.21648e-014 -17.95 -4.63713e-014 -15.1044 -27.2833 -3.68587 -3.43 -5.42921e-013 1.895e-014 -18.4542 -9.78985 -13.7912 -1.93225e-014 -18.47 -2.93099e-014 -4.42049 50.3122 -2.42557 -6.21725e-015 -17.95 2.18944e-015 18.3542 -20.753 3.3889 1.84582e-013 4.57 2.41903e-014 -0.464314 4.1553 -0.776657 2.49968e-015 6.57 1.46549e-014 -0.350575 3.76449 -0.742594 1.06 4.19 1.76 6.96429 0.0458754 -6.6427 5.81 -1.53953e-013 2.20374e-014 92.1104 -51.5 27.4672 5.49467e-016 -12.08 1.63881e-014 -12.0784 -26.8061 -31.3671 -2.13163e-014 -9.82 -3.55271e-014 9.52936 -3.69847 0.30838 -1.06 4.19 1.76 -2.3446 0.451234 5.77414 -6.06 9.3312e-015 2.50546e-014 -94.7486 -62.2708 -33.0626 3.21327e-014 -11.08 -3.88991e-015 6.28681 -17.45 43.3788 1.42109e-014 -9.82 -2.4869e-014 -8.00507 -4.95924 -0.347216 1.91531e-014 4.05 -1.06924e-014 0.957213 8.54379 0.835641 3.55271e-015 5.19 -1.77636e-015 -0.98428 11.6044 1.34695 
17.4726 35.5074 -8.21531 -0.867553 -13.36 -2.23304 3.43 -4.5508e-013 3.26562e-014 19.0678 -5.61856 13.4447 2.13163e-014 -18.47 -4.9738e-014 6.56439 48.7196 -13.0954 -3.8597e-014 -17.95 -6.14516e-014 -15.1182 -27.3171 -3.69403 -3.43 -6.10653e-013 1.99094e-014 -18.4378 -9.82964 -13.7515 -1.79662e-014 -18.47 -2.93099e-014 -4.45993 50.3209 -2.39079 -6.21725e-015 -17.95 -1.03553e-016 18.3802 -20.7747 3.3974 2.35309e-013 4.57 2.44714e-014 -0.464585 4.1314 -0.780465 -7.29402e-016 6.57 1.46549e-014 -0.350957 3.74255 -0.746911 1.06 4.19 1.76 6.98561 0.046925 -6.5936 5.81 -1.58694e-013 2.63562e-014 92.0356 -51.5188 27.3672 1.32522e-014 -12.08 1.77431e-014 -12.1073 -26.8368 -31.1849 -2.13163e-014 -9.82 -3.55271e-014 9.59576 -3.70256 0.310906 -1.06 4.19 1.76 -2.38097 0.446924 5.82949 -6.06 1.5826e-014 2.52665e-014 -94.6819 -62.3074 -33.0401 5.30026e-014 -11.08 -5.34196e-015 6.28724 -17.3442 43.3089 1.42109e-014 -9.82 -2.4869e-014 -8.07691 -4.95713 -0.350194 1.99368e-014 4.05 -1.21106e-014 0.910338 8.64773 0.864669 3.55271e-015 5.19 -1.77636e-015 -0.882273 11.4135 1.32146 
